<svg xmlns="http://www.w3.org/2000/svg" width="1200" height="900" viewBox="0 0 1200 900">
  <defs>
    <linearGradient id="g" x1="0" y1="0" x2="1" y2="1"><stop offset="0" stop-color="#2f5544"/><stop offset="1" stop-color="#16251d"/></linearGradient>
    <radialGradient id="r1" cx="0.15" cy="0.2" r="0.6"><stop offset="0" stop-color="#839a8c" stop-opacity="0.55"/><stop offset="1" stop-color="#839a8c" stop-opacity="0"/></radialGradient>
    <radialGradient id="r2" cx="0.9" cy="0.9" r="0.6"><stop offset="0" stop-color="#e29a2c" stop-opacity="0.35"/><stop offset="1" stop-color="#e29a2c" stop-opacity="0"/></radialGradient>
    <pattern id="dots" width="24" height="24" patternUnits="userSpaceOnUse"><circle cx="2" cy="2" r="1.4" fill="rgba(255,255,255,0.14)"/></pattern>
  </defs>
  <rect width="1200" height="900" fill="url(#g)"/>
  <rect width="1200" height="900" fill="url(#r1)"/>
  <rect width="1200" height="900" fill="url(#r2)"/>
  <rect width="1200" height="900" fill="url(#dots)"/>
  <g fill="#f2f5f1" transform="translate(330 250) scale(45)" shape-rendering="crispEdges">
    <rect x="2" y="0" width="1" height="1"/><rect x="8" y="0" width="1" height="1"/>
    <rect x="3" y="1" width="1" height="1"/><rect x="7" y="1" width="1" height="1"/>
    <rect x="2" y="2" width="7" height="1"/>
    <rect x="1" y="3" width="2" height="1"/><rect x="4" y="3" width="3" height="1"/><rect x="8" y="3" width="2" height="1"/>
    <rect x="0" y="4" width="11" height="1"/>
    <rect x="0" y="5" width="1" height="1"/><rect x="2" y="5" width="7" height="1"/><rect x="10" y="5" width="1" height="1"/>
    <rect x="0" y="6" width="1" height="1"/><rect x="2" y="6" width="1" height="1"/><rect x="8" y="6" width="1" height="1"/><rect x="10" y="6" width="1" height="1"/>
    <rect x="3" y="7" width="2" height="1"/><rect x="6" y="7" width="2" height="1"/>
  </g>
  <g fill="#e29a2c" transform="translate(880 130) scale(18)" shape-rendering="crispEdges">
    <rect x="1" y="0" width="1" height="1"/><rect x="3" y="0" width="1" height="1"/><rect x="0" y="1" width="5" height="1"/><rect x="0" y="2" width="1" height="1"/><rect x="2" y="2" width="1" height="1"/><rect x="4" y="2" width="1" height="1"/><rect x="0" y="3" width="5" height="1"/><rect x="1" y="4" width="1" height="1"/><rect x="3" y="4" width="1" height="1"/>
  </g>
  <g fill="#a9c0b2" transform="translate(150 640) scale(14)" shape-rendering="crispEdges">
    <rect x="1" y="0" width="1" height="1"/><rect x="3" y="0" width="1" height="1"/><rect x="0" y="1" width="5" height="1"/><rect x="0" y="2" width="1" height="1"/><rect x="2" y="2" width="1" height="1"/><rect x="4" y="2" width="1" height="1"/><rect x="0" y="3" width="5" height="1"/><rect x="1" y="4" width="1" height="1"/><rect x="3" y="4" width="1" height="1"/>
  </g>
  <text x="600" y="760" text-anchor="middle" font-family="Menlo, Consolas, monospace" font-size="34" fill="rgba(255,255,255,0.7)" letter-spacing="6">PRESS START · 48H · FMI</text>
</svg>
